<svg xmlns="http://www.w3.org/2000/svg" width="351.382" height="284.59" viewBox="0 0 136.56 110.522"><path fill="#ffbf00" d="M133.05 50.708c2.241-7.072-.78-13.935-6.386-20.001a157 157 0 0 0-1.691-1.848 39 39 0 0 1-.473 1.582c-.767 2.487-1.31 4.834-1.274 6.873.122 6.153 3.086 11.447 6.247 16.835.356.6.696 1.216 1.024 1.834.117-.23.224-.457.34-.675.657-1.35 1.786-3.273 2.213-4.6M63.197 77.252c-8.429-1.369-21.199-2.493-31.585-4.814-2.191-.493-4.242-1.055-6.104-1.705 1.924 1.838 4.189 3.922 5.478 4.872 6.87 5.071 15.135 9.436 26.077 10.893 13.11 1.75 29.27 1.723 41.113-2.281a46 46 0 0 0 2.366-.878c-1.237-.076-2.48-.167-3.731-.287-12.526-1.206-25.58-4.494-33.614-5.8"/><path fill="#e60000" d="M115.231 18.866c3.6 3.36 7.104 7.127 9.734 9.992 1.769-6.517.897-11.981-2.732-16.822C117.427 5.64 107.238 4.19 98.23 5.82c-.09.016-.243.046-.443.094.615.341 1.22.693 1.816 1.069 5.045 2.99 10.874 7.453 15.63 11.884M103.19 82.092c-.838.475-1.728.878-2.648 1.246 1.606.103 3.201.16 4.761.17 13.93.08 25.807-3.703 27.611-17.308.282-2.096 0-4.093-.612-6.04-.447-1.413-1.079-2.808-1.806-4.177a45 45 0 0 1-3.074 5.045c-5.953 8.47-15.167 15.916-24.231 21.064M22.65 67.921c-9.909-10.142-12.241-22.278-8.492-33.278.475-1.4 1.05-2.716 1.72-3.97a45 45 0 0 0-4.045 2.696c-12.873 9.6-13.376 20.725 1.671 31.426 2.941 2.1 7.76 4.463 11.694 5.822.101.04.21.08.31.116a146 146 0 0 1-2.858-2.812"/><path fill="#ffbf00" d="M61.383 15.371c15.935-4.653 31.742-8.429 32.46-8.594.518-.119 2.86-.64 3.941-.862-4.625-2.601-10.058-4.51-16.738-5.43-16.122-2.218-28.161 3.513-41.001 10.318-10.59 5.611-19.564 11.185-24.168 19.87 3.505-2.102 7.3-3.837 11.131-5.311 5.707-2.196 26.584-7.718 34.375-9.991"/><path fill="#ff5c00" d="M129.474 54.15c-3.162-5.39-6.126-10.682-6.25-16.838-.033-2.04.507-4.385 1.276-6.873.175-.532.326-1.065.471-1.581-2.637-2.873-6.138-6.63-9.74-9.993-4.755-4.43-10.585-8.891-15.63-11.884a36 36 0 0 0-1.816-1.065c-1.08.215-3.425.737-3.944.86-.717.165-16.524 3.943-32.46 8.594-7.788 2.273-28.665 7.787-34.372 9.993-3.829 1.472-7.628 3.207-11.133 5.31a26.5 26.5 0 0 0-1.719 3.97c-3.749 11-1.416 23.137 8.493 33.28.62.63 1.675 1.672 2.859 2.81 1.862.65 3.91 1.212 6.1 1.707 10.388 2.319 23.158 3.44 31.589 4.815 8.033 1.303 21.092 4.59 33.614 5.798q1.873.174 3.73.284a21.5 21.5 0 0 0 2.648-1.242c9.063-5.15 18.276-12.596 24.233-21.064a44 44 0 0 0 3.07-5.047 43 43 0 0 0-1.02-1.834"/><path fill="#fff" d="M31.46 32.435h1.307c1.508 0 2.955.145 2.955 1.723 0 1.438-1.522 1.804-2.998 1.804H31.46zm-4.503 13.853h7.128c3.024 0 6.575-.866 6.575-4.941 0-2.083-1.159-3.307-3.41-3.77v-.051c1.886-.638 2.972-1.826 2.972-3.99 0-2.937-2.346-4.328-5.484-4.328h-7.78zm4.503-7.236h1.385c1.55 0 3.312.16 3.312 2.02 0 1.745-1.715 1.981-3.36 1.981H31.46zM40.384 46.287h4.578l1.335-3.64h6.336l1.258 3.64h4.94l-6.511-17.08h-5.522zm11.188-6.875h-4.244l2.186-6.67h.044zM59.722 29.208h5.744l5.72 11.598h.045l-.074-11.598h4.115v17.08H69.68l-5.917-11.673h-.042l.137 11.673h-4.135zM77.834 46.287h6.16c5.75 0 9.992-2.227 9.992-8.611 0-6.607-4.111-8.469-9.993-8.469h-6.16zm4.51-13.706h1.745c3.286 0 5.245 1.769 5.245 5.166 0 3.404-1.885 5.167-5.245 5.167h-1.745zM92.969 46.287h4.578l1.341-3.64h6.33l1.258 3.64h4.948l-6.511-17.08h-5.528zm11.195-6.875h-4.245l2.18-6.67h.048zM112.117 29.208h4.499v17.08h-4.499zM26.958 50.001h5.798l5.768 11.61h.06l-.08-11.61h4.16v17.073h-5.652l-5.965-11.662h-.045l.145 11.662h-4.189zM43.58 67.075h4.627l1.34-3.638h6.41l1.271 3.638h5L55.64 50.003h-5.578zm11.31-6.867h-4.286l2.201-6.68h.04zM63.135 50.001h7.173l2.96 11.35h.052l3.124-11.35h6.893v17.073h-4.441l.067-13.105h-.05l-3.69 13.105h-4.182l-3.503-13.105h-.046l.094 13.105h-4.451zM99.745 66.687c-1.296.32-2.74.7-5.065.7-4.56 0-9.814-2.312-9.814-8.771 0-5.94 4.155-8.912 9.782-8.912 1.739 0 3.428.406 5.063.89l-.37 3.692c-1.458-.805-2.879-1.2-4.443-1.2-3.228 0-5.34 2.349-5.34 5.53 0 3.356 2.376 5.388 5.704 5.388 1.49 0 3.008-.399 4.256-.886zM100.44 58.55c0 5.433 2.98 8.835 8.567 8.835 5.57 0 8.564-3.402 8.564-8.834 0-5.48-2.937-8.846-8.564-8.846-5.635 0-8.568 3.366-8.568 8.846m4.703 0c0-2.97 1.1-5.464 3.865-5.464 2.764 0 3.865 2.493 3.865 5.464 0 2.8-1.1 5.456-3.865 5.456s-3.865-2.657-3.865-5.456"/><g fill="#e60000"><path d="M66.632 105.965c0 1.639-1.06 2.899-3.072 2.899-.928 0-2.224-.628-2.224-1.799 0-1.945 2.895-2.362 3.998-2.362.43 0 .867.04 1.298.04zm-6.222-4.451c.821-.642 2.27-.992 3.412-.992 2.03 0 2.81.807 2.81 2.71-.801-.041-1.363 0-2.16 0-2.098 0-5.335.98-5.335 3.75 0 2.392 1.878 3.519 4.252 3.519 1.862 0 2.937-.888 3.414-1.562h.045v1.304h1.86c-.048-.328-.048-.91-.048-2.164v-4.556c0-3-1.359-4.646-4.518-4.646-.948 0-2.835.304-3.793.88zM88.758 99.158h1.9v1.667h.045c.775-1.274 1.884-1.858 3.5-1.858 1.285 0 2.555.65 3.137 2.14.755-1.578 2.42-2.14 3.42-2.14 2.805 0 3.82 1.814 3.82 4.22v7.07h-2.058v-6.575c0-1.365-.29-2.814-1.937-2.814-2.077 0-2.643 1.775-2.643 3.833v5.556h-2.333v-6.575c0-1.365-.278-2.814-1.925-2.814-2.073 0-2.643 1.775-2.643 3.833v5.556h-2.283zM32.32 103.638c.146-1.44 1.108-3.102 3.107-3.102 1.768 0 2.768 1.403 2.768 3.102zm7.204 4.111c-.5.417-2.068 1.117-3.42 1.117-1.937 0-3.785-1.504-3.785-3.704l8.02-.006c.036-.214.036-.433.026-.648-.153-3.242-1.417-5.623-4.89-5.623-3.14 0-5.367 2.335-5.367 5.623 0 3.613 1.971 6.007 5.907 6.007 1.83 0 2.722-.43 3.51-.715zM108.607 103.638c.149-1.44 1.108-3.102 3.107-3.102 1.77 0 2.766 1.403 2.766 3.102zm7.206 4.111c-.5.417-2.068 1.117-3.42 1.117-1.942 0-3.786-1.504-3.786-3.704l8.023-.006c.03-.214.03-.433.022-.648-.147-3.242-1.409-5.623-4.892-5.623-3.134 0-5.355 2.335-5.355 5.623 0 3.613 1.96 6.007 5.905 6.007 1.826 0 2.719-.43 3.503-.715zM136.39 100.87h-2.88v6.016c0 1.283.717 1.897 1.651 1.897.634 0 .94-.045 1.4-.21v1.717a6.5 6.5 0 0 1-1.741.232c-2.115 0-3.424-1.001-3.424-3.227v-6.426h-2.508v-1.718h2.508v-2.79l2.114-.435v3.225h2.88zM57.417 100.87h-2.875v6.016c0 1.283.719 1.897 1.659 1.897.63 0 .932-.045 1.393-.21v1.717a6.6 6.6 0 0 1-1.747.232c-2.11 0-3.418-1.001-3.418-3.227v-6.426h-2.505v-1.718h2.505v-2.79l2.113-.435v3.225h2.875zM28.877 100.87H26v6.016c0 1.283.721 1.897 1.661 1.897.628 0 .93-.045 1.389-.21v1.717a6.5 6.5 0 0 1-1.74.232c-2.115 0-3.422-1.001-3.422-3.227v-6.426h-2.506v-1.718h2.506v-2.79L26 95.926v3.225h2.877zM71.504 99.146h2.112v11.117h-2.112zm2.249-2.486H71.38v-2.303h2.373zM10.463 99.146h1.983v1.773h.043c.612-1.27 2.095-1.981 3.64-1.981 2.985 0 4.167 1.897 4.167 4.903v6.422H18.14v-5.752c0-2.533-.516-3.704-2.247-3.813-2.335 0-3.31 1.72-3.31 4.427v5.138h-2.12zM76.635 99.146h1.979v1.773h.05c.601-1.27 2.09-1.981 3.633-1.981 2.985 0 4.167 1.897 4.167 4.903v6.422h-2.158v-5.752c0-2.533-.512-3.704-2.249-3.813-2.33 0-3.302 1.72-3.302 4.427v5.138h-2.12zM118.23 99.146h1.978v1.773h.05c.612-1.27 2.088-1.981 3.638-1.981 2.988 0 4.159 1.895 4.159 4.903v6.422h-2.148v-5.754c0-2.533-.519-3.702-2.251-3.811-2.335 0-3.31 1.717-3.31 4.427v5.138h-2.117zM42.192 99.146h1.922v1.743h.043c.529-1.12 1.807-1.938 2.901-1.97.608-.025.91.003 1.348.094v1.794a4.2 4.2 0 0 0-1.276-.087c-1.93.206-2.832 1.79-2.832 4.578v4.965h-2.106zM0 95.05h8.367v1.925H2.18v4.342h5.937v1.92H2.18v5.108h6.187v1.92H0z"/></g></svg>