<?xml version="1.0" encoding="UTF-8" standalone="no"?>
<!-- Created with Inkscape (http://www.inkscape.org/) -->

<svg
   xmlns:svg="http://www.w3.org/2000/svg"
   xmlns="http://www.w3.org/2000/svg"
   xmlns:xlink="http://www.w3.org/1999/xlink"
   version="1.1"
   width="632.81287"
   height="139.269"
   id="svg2"
   xml:space="preserve"><defs
     id="defs6"><clipPath
       id="clipPath18"><path
         d="m 0,0 651.96,0 0,510.264 L 0,510.264 0,0 z"
         id="path20" /></clipPath><clipPath
       id="clipPath26"><path
         d="m 0,0 651.96,0 0,510.264 L 0,510.264 0,0 z"
         id="path28" /></clipPath><clipPath
       id="clipPath34"><path
         d="m -19.116,-19.503 342.747,0 0,547.731 -342.747,0 0,-547.731 z"
         id="path36" /></clipPath><clipPath
       id="clipPath42"><path
         d="m -19.116,526.5 352.557,0 0,-547.2 -352.557,0 0,547.2 z"
         id="path44" /></clipPath><clipPath
       id="clipPath50"><path
         d="M 323.631,510.264 0,510.264 0,0 l 323.244,0 0,483.912 0.387,0 0,26.352 M 64.44,336.582 l 180,0 0,-116.64 -180,0 0,116.64 z M 86.958,175.5 l 29.547,0 0,-29.547 -29.547,0 0,29.547 z"
         id="path52" /></clipPath><clipPath
       id="clipPath64"><path
         d="m 64.44,219.942 180,0 0,116.64 -180,0 0,-116.64 z"
         id="path66" /></clipPath><clipPath
       id="clipPath72"><path
         d="m 244.44,336.582 -180,0 0,-116.64 180,0 0,116.64 z"
         id="path74" /></clipPath><clipPath
       id="clipPath88"><path
         d="m 323.244,-18 346.671,0 0,501.912 -346.671,0 0,-501.912 z"
         id="path90" /></clipPath><clipPath
       id="clipPath96"><path
         d="m 274.05,483.912 392.04,0 0,-492.912 -392.04,0 0,492.912 z"
         id="path98" /></clipPath><clipPath
       id="clipPath104"><path
         d="m 651.96,483.912 -328.329,0 -0.387,0 0,-483.912 328.716,0 0,483.912 m -306.963,-143.109 291.6,0 0,-97.2 -291.6,0 0,97.2 z"
         id="path106" /></clipPath><clipPath
       id="clipPath118"><path
         d="m 344.997,243.603 291.6,0 0,97.2 -291.6,0 0,-97.2 z"
         id="path120" /></clipPath><clipPath
       id="clipPath126"><path
         d="m 636.597,340.803 -291.6,0 0,-97.2 291.6,0 0,97.2 z"
         id="path128" /></clipPath><clipPath
       id="clipPath134"><path
         d="m 344.78,243.384 292.032,0 0,97.632 -292.032,0 0,-97.632 z"
         id="path136" /></clipPath><clipPath
       id="clipPath226"><path
         d="m 323.28,448.281 345.807,0 0,79.983 -345.807,0 0,-79.983 z"
         id="path228" /></clipPath><clipPath
       id="clipPath234"><path
         d="m 669.069,528.264 0.022,-71.189 -345.973,0 0.011,71.189 345.94,0 z"
         id="path236" /></clipPath><linearGradient
       x1="0"
       y1="0"
       x2="1"
       y2="0"
       id="linearGradient250"
       gradientUnits="userSpaceOnUse"
       gradientTransform="matrix(343.689,-1.53e-5,-1.53e-5,-343.689,325.4016,492.6693)"
       spreadMethod="pad"><stop
         id="stop252"
         style="stop-color:#bdbcbd;stop-opacity:1"
         offset="0" /><stop
         id="stop254"
         style="stop-color:#f9f9f9;stop-opacity:1"
         offset="0.5" /><stop
         id="stop256"
         style="stop-color:#f9f9f9;stop-opacity:1"
         offset="0.5" /><stop
         id="stop258"
         style="stop-color:#f5f4f5;stop-opacity:1"
         offset="0.75" /><stop
         id="stop260"
         style="stop-color:#f5f4f5;stop-opacity:1"
         offset="1" /></linearGradient><clipPath
       id="clipPath268"><path
         d="m 323.094,457.303 0,-9.023 345.975,0 0.022,9.069 -345.997,-0.046 z"
         id="path270" /></clipPath><linearGradient
       x1="0"
       y1="0"
       x2="1"
       y2="0"
       id="linearGradient284"
       gradientUnits="userSpaceOnUse"
       gradientTransform="matrix(345.99701,0,0,-345.99701,323.09398,452.8143)"
       spreadMethod="pad"><stop
         id="stop286"
         style="stop-color:#85ce26;stop-opacity:1"
         offset="0" /><stop
         id="stop288"
         style="stop-color:#1a3f0e;stop-opacity:1"
         offset="0.5" /><stop
         id="stop290"
         style="stop-color:#1a3f0e;stop-opacity:1"
         offset="0.5" /><stop
         id="stop292"
         style="stop-color:#cae99f;stop-opacity:1"
         offset="1" /></linearGradient><clipPath
       id="clipPath314"><path
         d="m 324.616,502.098 0,-40.297 53.73,0 0,40.297"
         id="path316" /></clipPath><clipPath
       id="clipPath322"><path
         d="m 361.933,495.157 c 0,0 0.576,0.129 0.873,-0.129 0.684,-0.594 3.37,-3.173 4.659,-6.99 1.291,-3.817 1.152,-7.064 0.357,-10.131 -0.772,-2.985 -2.499,-5.364 -3.103,-6.108 -0.44,-0.541 -0.596,-0.742 -0.824,-0.832 -0.029,-0.207 -0.207,-0.369 -0.397,-0.547 -0.187,-0.177 -1.923,-2.041 -4.648,-3.329 -2.726,-1.288 -5.095,-1.725 -7.465,-1.725 -2.371,0 -5.116,0.536 -7.416,1.705 -2.3,1.171 -3.531,2.191 -4.682,3.331 -0.193,0.192 -0.324,0.307 -0.365,0.524 -0.119,0.051 -0.228,0.1 -0.487,0.406 -0.256,0.309 -1.892,2.153 -2.971,5.039 -1.083,2.883 -1.448,5.899 -0.736,9.586 0.715,3.688 3.116,7.28 5.205,9.041 0.317,0.268 0.903,0.129 0.903,0.129 0,0 0.148,0.774 0.841,1.26 0.696,0.486 2.192,1.419 4.147,2.102 1.951,0.683 4.053,0.932 5.571,0.932 1.517,0 3.449,-0.268 4.748,-0.674 1.298,-0.407 3.1,-1.047 4.956,-2.36 0.675,-0.475 0.834,-1.23 0.834,-1.23"
         id="path324" /></clipPath><clipPath
       id="clipPath330"><path
         d="m 0.051,0.332 1,0 0,1 -1,0 0,-1 z"
         id="path332" /></clipPath><clipPath
       id="clipPath354"><path
         d="m 668.975,527.983 0,-70.849 -347.137,0 0.012,70.849 347.125,0 z"
         id="path356" /></clipPath><clipPath
       id="clipPath376"><path
         d="m 323.094,457.304 0,-8.907 345.975,-0.117 0.013,9.069 -345.988,-0.045 z"
         id="path378" /></clipPath><clipPath
       id="clipPath404"><path
         d="m 579.861,491.786 0,-31.32 62.64,0 0,31.32"
         id="path406" /></clipPath><clipPath
       id="clipPath412"><path
         d="m 587.838,472.712 0,9.485 -2.301,0 0,-9.485 c 0,-1.448 1.181,-2.624 2.629,-2.624 l 9.986,0 0,2.291 -10,0 c -0.176,0 -0.314,0.139 -0.314,0.333 m 14.777,9.471 -2.279,-2.284 0,-9.811 2.279,0 0,12.095 z m 10.689,-9.644 c -0.062,-0.099 -0.172,-0.16 -0.289,-0.16 -0.119,0 -0.222,0.063 -0.283,0.16 l -5.574,9.658 -2.639,0 6.235,-10.806 c 0.443,-0.775 1.296,-1.303 2.261,-1.303 0.965,0 1.807,0.528 2.268,1.303 l 6.224,10.806 -2.634,0 -5.569,-9.658 z m 11.662,-0.16 11.25,0 0,-2.291 -11.232,0 c -1.449,0 -2.635,1.176 -2.635,2.624 l 0,6.862 c 0,1.458 1.186,2.623 2.635,2.623 l 11.777,0 -2.343,-2.298 -9.452,0 c -0.166,0 -0.316,-0.143 -0.316,-0.325 l 0,0.003 0,-0.003 0,-2.291 8.176,0 -1.674,-2.28 -6.502,-10e-4 0,-2.29 c 0,-0.195 0.15,-0.333 0.316,-0.333"
         id="path414" /></clipPath><clipPath
       id="clipPath420"><path
         d="m 4.109,0.385 1,0 0,1 -1,0 0,-1 z"
         id="path422" /></clipPath><clipPath
       id="clipPath434"><path
         d="m 243.513,73.8 45.558,0 0,54 -45.558,0 0,-54 z"
         id="path436" /></clipPath><clipPath
       id="clipPath692"><path
         d="m 235.566,12.816 72.081,0 0,31.95 -72.081,0 0,-31.95 z"
         id="path694" /></clipPath><clipPath
       id="clipPath712"><path
         d="m 235.564,42.871 0,-20.754 62.213,0 0,20.754"
         id="path714" /></clipPath><clipPath
       id="clipPath728"><path
         d="m 235.564,42.871 0,-20.754 62.213,0 0,20.754"
         id="path730" /></clipPath><clipPath
       id="clipPath746"><path
         d="m 22.644,26.154 80.064,0 0,6.948 -80.064,0 0,-6.948 z"
         id="path748" /></clipPath><clipPath
       id="clipPath754"><path
         d="m 22.646,33.105 80,0 0,-9 -80,0 0,9 z"
         id="path756" /></clipPath><clipPath
       id="clipPath766"><path
         d="m 127.998,23.895 86.796,0 0,19.107 -86.796,0 0,-19.107 z"
         id="path768" /></clipPath><clipPath
       id="clipPath774"><path
         d="m -225.016,646.487 792,0 0,-1224 -792,0 0,1224 z"
         id="path776" /></clipPath><clipPath
       id="clipPath782"><path
         d="m 127.984,23.886 87,0 0,19.201 -87,0 0,-19.201 z"
         id="path784" /></clipPath><clipPath
       id="clipPath790"><path
         d="m 127.996,23.898 86.802,0 0,19.102 -86.802,0 0,-19.102 z"
         id="path792" /></clipPath><clipPath
       id="clipPath806"><path
         d="m 127.996,23.898 86.802,0 0,19.102 -86.802,0 0,-19.102 z"
         id="path808" /></clipPath><clipPath
       id="clipPath884"><path
         d="m 86.958,145.953 29.547,0 0,29.547 -29.547,0 0,-29.547 z"
         id="path886" /></clipPath><clipPath
       id="clipPath892"><path
         d="m 116.505,175.5 -29.547,0 0,-29.547 29.547,0 0,29.547 z"
         id="path894" /></clipPath><clipPath
       id="clipPath900"><path
         d="m 86.928,145.919 29.614,0 0,29.614 -29.614,0 0,-29.614 z"
         id="path902" /></clipPath><linearGradient
       x1="0"
       y1="0"
       x2="1"
       y2="0"
       id="linearGradient4565"
       xlink:href="#linearGradient250"
       gradientUnits="userSpaceOnUse"
       gradientTransform="matrix(343.689,-1.53e-5,-1.53e-5,-343.689,325.4016,492.6693)"
       spreadMethod="pad" /><linearGradient
       x1="0"
       y1="0"
       x2="1"
       y2="0"
       id="linearGradient4567"
       xlink:href="#linearGradient284"
       gradientUnits="userSpaceOnUse"
       gradientTransform="matrix(345.99701,0,0,-345.99701,323.09398,452.8143)"
       spreadMethod="pad" /></defs><g
     transform="matrix(1.25,0,0,-1.25,-93.782093,201.57354)"
     id="g12"><g
       transform="matrix(5.8326457,0,0,5.8326457,1648.8774,-89.544935)"
       id="g84" /><g
       transform="matrix(5.8326457,0,0,5.8326457,-671.54131,-89.544935)"
       id="g762"
       style="fill:#000000"><g
         clip-path="url(#clipPath766)"
         id="g764"
         style="fill:#000000"><g
           id="g770"
           style="fill:#000000"><g
             clip-path="url(#clipPath774)"
             id="g772"
             style="fill:#000000"><g
               id="g778"
               style="fill:#000000"><g
                 clip-path="url(#clipPath782)"
                 id="g780"
                 style="fill:#000000"><g
                   id="g786"
                   style="fill:#000000"><g
                     clip-path="url(#clipPath790)"
                     id="g788"
                     style="fill:#000000"><path
                       d="m 187.981,23.95 c -1.758,0.037 -3.086,1.189 -3.108,2.615 -0.023,1.469 1.357,2.647 3.219,2.678 0.387,0.012 0.854,-0.05 1.329,-0.224 l 0,-1.642 c -0.26,0.168 -0.764,0.229 -1.091,0.229 -0.653,0.006 -1.201,-0.353 -1.224,-0.961 -0.022,-0.563 0.512,-1.053 1.232,-1.028 0.445,0.012 0.964,0.18 1.083,0.285 l 0,-1.717 c -0.03,-0.012 -0.735,-0.248 -1.44,-0.235"
                       id="path794"
                       style="fill:#000000;fill-opacity:1;fill-rule:nonzero;stroke:none" /><path
                       d="m 194.014,25.554 c -0.638,-0.011 -1.024,0.447 -1.046,0.949 -0.022,0.514 0.393,0.998 1.024,1.016 0.615,0.019 0.994,-0.458 1.009,-0.954 0.022,-0.502 -0.349,-0.998 -0.987,-1.011 m -0.037,3.602 c -1.714,-0.006 -3.116,-1.172 -3.139,-2.604 -0.022,-1.444 1.38,-2.646 3.102,-2.665 1.751,-0.031 3.22,1.067 3.22,2.647 0,1.444 -1.454,2.628 -3.183,2.622"
                       id="path796"
                       style="fill:#000000;fill-opacity:1;fill-rule:nonzero;stroke:none" /></g></g><path
                   d="m 201.391,26.819 -0.489,0 0,0.843 0.46,0 c 0.282,0 0.549,-0.087 0.571,-0.391 0.015,-0.291 -0.245,-0.452 -0.542,-0.452 m 1.454,-0.713 c 0,0.007 1.291,0.174 1.262,1.382 -0.03,1.166 -1.105,1.494 -2.203,1.494 l -3.769,0.004 0.734,-0.705 0,-4.214 2.048,0 0,1.649 1.06,-1.649 2.345,0 -1.477,2.039"
                   id="path798"
                   style="fill:#000000;fill-opacity:1;fill-rule:nonzero;stroke:none" /><path
                   d="m 208.775,26.825 -0.481,0 0,0.881 0.466,0 c 0.289,0 0.542,-0.081 0.565,-0.422 0.029,-0.31 -0.253,-0.459 -0.55,-0.459 m 0.676,2.157 -3.968,0.004 0.732,-0.704 0,-4.215 2.079,0 0,1.482 1.023,0 c 1.157,-0.006 2.159,0.44 2.129,1.753 -0.029,1.16 -0.898,1.68 -1.995,1.68"
                   id="path800"
                   style="fill:#000000;fill-opacity:1;fill-rule:nonzero;stroke:none" /><g
                   id="g802"
                   style="fill:#000000"><g
                     clip-path="url(#clipPath806)"
                     id="g804"
                     style="fill:#000000"><path
                       d="m 183.932,36.624 -1.835,-5.426 -4.219,0 3.901,9.292 4.466,0 3.699,-9.292 -4.292,0 -1.72,5.426 z"
                       id="path810"
                       style="fill:#000000;fill-opacity:1;fill-rule:nonzero;stroke:none" /><path
                       d="m 135.598,33.989 -1.216,0 0,1.875 1.13,0 c 0.634,0 1.233,-0.252 1.267,-0.893 0.017,-0.566 -0.548,-0.982 -1.181,-0.982 m -1.233,6.207 0.873,0 c 0.565,0 0.993,-0.327 1.01,-0.789 0.017,-0.446 -0.428,-0.803 -0.941,-0.803 l -0.942,0 0,1.592 z m 4.469,-2.783 c 1.181,0.416 2.208,1.399 2.156,2.635 -0.085,1.905 -1.951,2.947 -3.971,2.947 l -9.035,0.005 1.725,-1.724 0,-10.086 6.539,0 c 2.586,0 5.393,0.581 5.393,3.38 -0.017,1.592 -1.027,2.426 -2.807,2.843"
                       id="path812"
                       style="fill:#000000;fill-opacity:1;fill-rule:nonzero;stroke:none" /></g></g><path
                   d="m 175.259,42.205 -1.522,-5.64 -1.553,5.64 -4.021,0 -1.617,-5.723 -1.41,5.723 -5.562,0.003 1.608,-1.607 2.929,-9.44 4.389,0 1.666,5.404 1.633,-5.404 4.517,0 3.54,11.044 -4.597,0 z"
                   id="path814"
                   style="fill:#000000;fill-opacity:1;fill-rule:nonzero;stroke:none" /><path
                   d="m 195.972,36.401 -0.954,0 0,1.594 0.896,0 c 0.549,0 1.07,-0.164 1.113,-0.738 0.028,-0.551 -0.477,-0.856 -1.055,-0.856 m 2.832,-1.348 c 0,0.012 2.515,0.329 2.457,2.614 -0.057,2.203 -2.153,2.823 -4.292,2.823 l -7.363,0.004 1.452,-1.354 0,-7.942 3.989,0 0,3.117 2.067,-3.117 4.566,0 -2.876,3.855"
                   id="path816"
                   style="fill:#000000;fill-opacity:1;fill-rule:nonzero;stroke:none" /><path
                   d="m 207.393,33.612 0,1.043 3.194,0 0,2.414 -3.194,0 0,1.008 3.57,0 0,2.413 -9.148,0.007 1.459,-1.361 0,-7.938 7.804,0 0,2.414 -3.685,0 z"
                   id="path818"
                   style="fill:#000000;fill-opacity:1;fill-rule:nonzero;stroke:none" /><path
                   d="m 143.049,40.488 4.162,0 0,-2.063 -4.162,0 0,2.063 z"
                   id="path820"
                   style="fill:#000000;fill-opacity:1;fill-rule:nonzero;stroke:none" /><path
                   d="m 141.612,37.589 1.437,-1.341 0,-5.052 4.163,0 0,6.385 -5.6,0.008 z"
                   id="path822"
                   style="fill:#000000;fill-opacity:1;fill-rule:nonzero;stroke:none" /><path
                   d="m 154.676,34.008 c -1.243,-0.022 -1.994,0.844 -2.038,1.793 -0.043,0.973 0.766,1.887 1.994,1.922 1.2,0.035 1.937,-0.867 1.966,-1.804 0.043,-0.95 -0.679,-1.887 -1.922,-1.911 m -0.072,6.809 c -3.339,-0.012 -6.07,-2.215 -6.113,-4.922 -0.044,-2.73 2.688,-5.004 6.04,-5.039 3.411,-0.058 6.272,2.016 6.272,5.004 0,2.73 -2.832,4.968 -6.199,4.957"
                   id="path824"
                   style="fill:#000000;fill-opacity:1;fill-rule:nonzero;stroke:none" /><path
                   d="m 213.01,41.262 0.173,0 c 0.116,0 0.197,0.018 0.244,0.056 0.047,0.036 0.072,0.084 0.072,0.141 0,0.058 -0.024,0.105 -0.069,0.142 -0.045,0.037 -0.122,0.055 -0.23,0.055 l -0.19,0 0,-0.394 z m -0.399,0.675 0.72,0 c 0.204,0 0.351,-0.041 0.443,-0.122 0.091,-0.082 0.137,-0.192 0.137,-0.33 0,-0.107 -0.035,-0.201 -0.106,-0.279 -0.07,-0.079 -0.181,-0.136 -0.333,-0.171 0.063,-0.024 0.108,-0.048 0.137,-0.075 0.041,-0.037 0.083,-0.091 0.128,-0.164 0.003,-0.005 0.09,-0.16 0.262,-0.465 l -0.476,0 c -0.152,0.306 -0.255,0.488 -0.307,0.548 -0.052,0.06 -0.104,0.089 -0.156,0.089 -0.013,0 -0.028,-0.002 -0.05,-0.005 l 0,-0.632 -0.399,0 0,1.606 z m 1.894,-0.803 c 0,0.336 -0.12,0.622 -0.357,0.86 -0.237,0.237 -0.523,0.356 -0.859,0.356 -0.335,0 -0.622,-0.119 -0.86,-0.356 -0.237,-0.238 -0.356,-0.524 -0.356,-0.86 0,-0.335 0.119,-0.622 0.356,-0.859 0.238,-0.238 0.525,-0.356 0.86,-0.356 0.336,0 0.622,0.118 0.859,0.356 0.237,0.237 0.357,0.524 0.357,0.859 m 0.293,0 c 0,-0.269 -0.067,-0.52 -0.202,-0.752 -0.134,-0.233 -0.319,-0.416 -0.551,-0.55 -0.233,-0.134 -0.485,-0.201 -0.754,-0.201 -0.268,0 -0.519,0.067 -0.751,0.201 -0.234,0.134 -0.417,0.317 -0.552,0.55 -0.135,0.232 -0.202,0.483 -0.202,0.752 0,0.268 0.067,0.519 0.202,0.752 0.135,0.233 0.318,0.416 0.552,0.551 0.232,0.133 0.483,0.2 0.751,0.2 0.269,0 0.521,-0.067 0.754,-0.2 0.232,-0.135 0.417,-0.318 0.551,-0.551 0.135,-0.233 0.202,-0.484 0.202,-0.752"
                   id="path826"
                   style="fill:#000000;fill-opacity:1;fill-rule:nonzero;stroke:none" /></g></g></g></g></g></g></g></svg>