<?xml version="1.0" encoding="UTF-8" standalone="no"?>
<svg
   xmlns:dc="http://purl.org/dc/elements/1.1/"
   xmlns:cc="http://creativecommons.org/ns#"
   xmlns:rdf="http://www.w3.org/1999/02/22-rdf-syntax-ns#"
   xmlns:svg="http://www.w3.org/2000/svg"
   xmlns="http://www.w3.org/2000/svg"
   xmlns:xlink="http://www.w3.org/1999/xlink"
   xml:space="preserve"
   enable-background="new 0 0 72.125 22.875"
   viewBox="0 0 500 145.653"
   height="145.653"
   width="500">
<g
   transform="matrix(7.065163,0,0,7.065163,-14.476519,-6.71434)"
   id="g306">
	<defs
   id="defs236"><rect
     height="20.618"
     width="70.772003"
     y="0.94999999"
     x="2.0480001"
     id="SVGID_1_" /></defs>
	<clipPath
   id="SVGID_2_">
		<use
   height="100%"
   width="100%"
   y="0"
   x="0"
   style="overflow:visible"
   id="use238"
   overflow="visible"
   xlink:href="#SVGID_1_" />
	</clipPath>
	<defs
   id="defs246"><filter
     height="18.979"
     width="39.466"
     y="0.94999999"
     x="16.952"
     filterUnits="userSpaceOnUse"
     id="Adobe_OpacityMaskFilter">
			<feFlood
   id="feFlood241"
   result="back" />
			<feBlend
   id="feBlend243"
   mode="normal"
   in2="back"
   in="SourceGraphic" />
		</filter></defs>
	<mask
   id="SVGID_3_"
   height="18.979"
   width="39.466"
   y="0.95"
   x="16.952"
   maskUnits="userSpaceOnUse">
		<g
   style="filter:url(#Adobe_OpacityMaskFilter)"
   id="g267">
			<g
   id="g265"
   enable-background="new    ">
				<g
   id="g263">
					<defs
   id="defs249"><rect
     height="30.021"
     width="73.515999"
     transform="rotate(-179.98935,37.642567,13.096702)"
     y="-1.914"
     x="0.88499999"
     id="SVGID_4_" /></defs>
					<clipPath
   clip-path="url(#SVGID_2_)"
   id="SVGID_5_">
						<use
   height="100%"
   width="100%"
   y="0"
   x="0"
   style="overflow:visible"
   id="use251"
   overflow="visible"
   xlink:href="#SVGID_4_" />
					</clipPath>
					
						<linearGradient
   gradientTransform="matrix(29.0984,0,0,-29.0984,8282.1563,7951.1138)"
   y2="272.7988"
   x2="-283.0827"
   y1="272.7988"
   x1="-284.08249"
   gradientUnits="userSpaceOnUse"
   id="SVGID_6_">
						<stop
   id="stop254"
   style="stop-color:#231F20"
   offset="0" />
						<stop
   id="stop256"
   style="stop-color:#F5F5F6"
   offset="0.8517" />
						<stop
   id="stop258"
   style="stop-color:#FFFFFF"
   offset="1" />
					</linearGradient>
					<rect
   style="fill:url(#SVGID_6_)"
   id="rect261"
   height="30.035"
   width="73.519997"
   clip-path="url(#SVGID_5_)"
   y="-1.921"
   x="0.88300002" />
				</g>
			</g>
		</g>
	</mask>
	<g
   id="g288"
   mask="url(#SVGID_3_)"
   clip-path="url(#SVGID_2_)">
		<g
   id="g286">
			<defs
   id="defs271"><rect
     height="18.979"
     width="39.465"
     y="0.94999999"
     x="16.952"
     id="SVGID_7_" /></defs>
			<clipPath
   id="SVGID_8_">
				<use
   height="100%"
   width="100%"
   y="0"
   x="0"
   style="overflow:visible"
   id="use273"
   overflow="visible"
   xlink:href="#SVGID_7_" />
			</clipPath>
			<g
   id="g284"
   clip-path="url(#SVGID_8_)">
				<defs
   id="defs277"><rect
     height="18.979"
     width="39.465"
     y="0.94999999"
     x="16.952"
     id="SVGID_9_" /></defs>
				<clipPath
   id="SVGID_10_">
					<use
   height="100%"
   width="100%"
   y="0"
   x="0"
   style="overflow:visible"
   id="use279"
   overflow="visible"
   xlink:href="#SVGID_9_" />
				</clipPath>
				<path
   style="fill:#bbbdbf"
   id="path282"
   d="M 56.418,8.447 C 52.112,3.802 45.588,0.756 38.443,0.96 21.744,1.436 16.865,15.35 16.953,19.93 17.846,10.89 26.214,2.315 38.155,2.403 c 6.819,0.052 13.037,3.28 16.617,7.582 0.275,-0.794 0.992,-1.338 1.646,-1.538"
   clip-path="url(#SVGID_10_)" />
			</g>
		</g>
	</g>
	<path
   id="path290"
   d="m 2.373,21.317 c -0.179,0 -0.324,-0.145 -0.324,-0.323 V 9.938 C 2.049,9.76 2.194,9.614 2.373,9.614 H 6.009 L 8.334,9.613 c 1.729,0.004 3.77,0.976 3.771,3.209 0,1.245 -0.887,1.905 -1.32,2.321 0.663,0.336 1.554,1.323 1.555,2.752 10e-4,1.119 -0.436,1.98 -1.156,2.556 -0.721,0.575 -1.722,0.866 -2.85,0.866 H 5.527 Z m 1.768,-5.073 c -0.177,0 -0.323,0.147 -0.323,0.324 v 2.655 c 0,0.178 0.146,0.325 0.323,0.325 h 4.193 c 1.551,-0.009 2.231,-0.569 2.235,-1.653 -0.007,-1.012 -0.5,-1.641 -2.235,-1.651 z m 4.192,-1.771 c 1.125,-0.001 1.998,-0.65 2.001,-1.65 C 10.331,11.932 9.496,11.39 8.333,11.387 H 4.141 c -0.177,0 -0.323,0.146 -0.323,0.323 v 2.439 c 0,0.178 0.146,0.323 0.323,0.323 h 4.192 z"
   clip-path="url(#SVGID_2_)" />
	<path
   id="path292"
   d="m 14.898,16.89 c 0,1.104 0.209,2.273 0.96,3.17 0.75,0.896 2.04,1.508 4.174,1.506 h 0.001 c 2.133,0 3.423,-0.61 4.173,-1.506 0.751,-0.896 0.96,-2.066 0.96,-3.17 V 9.938 c 0,-0.179 -0.145,-0.324 -0.324,-0.324 H 23.72 c -0.178,0 -0.324,0.146 -0.324,0.324 v 6.952 c -0.009,1.687 -0.677,2.894 -3.364,2.903 -2.687,-0.01 -3.354,-1.217 -3.364,-2.903 V 9.938 c 0,-0.179 -0.146,-0.324 -0.324,-0.324 h -1.122 c -0.178,0 -0.324,0.146 -0.324,0.324 z"
   clip-path="url(#SVGID_2_)" />
	<path
   id="path294"
   d="m 37.302,18.051 c 0,0.178 -0.09,0.208 -0.199,0.069 L 30.656,9.87 C 30.547,9.728 30.311,9.613 30.133,9.613 h -1.097 c -0.179,0 -0.324,0.146 -0.324,0.324 v 11.059 c 0,0.178 0.145,0.324 0.324,0.324 h 1.123 c 0.178,0 0.324,-0.146 0.324,-0.324 v -8.112 c 0,-0.179 0.089,-0.21 0.2,-0.069 l 6.445,8.249 c 0.11,0.142 0.345,0.254 0.524,0.254 h 1.097 c 0.178,0 0.324,-0.145 0.324,-0.323 V 9.938 c 0,-0.179 -0.146,-0.324 -0.324,-0.324 h -1.123 c -0.178,0 -0.323,0.146 -0.323,0.324 v 8.113 z"
   clip-path="url(#SVGID_2_)" />
	<path
   id="path296"
   d="m 57.928,13.937 h -0.002 -1.119 -0.001 c -0.179,0 -0.324,0.145 -0.324,0.324 v 6.734 c 0,0.179 0.147,0.325 0.325,0.325 h 0.05 1.021 0.049 c 0.18,0 0.326,-0.146 0.326,-0.325 v -6.734 c -10e-4,-0.18 -0.148,-0.324 -0.325,-0.324"
   clip-path="url(#SVGID_2_)" />
	<path
   id="path298"
   d="m 63.367,19.548 c -0.179,0 -0.324,-0.146 -0.324,-0.324 V 16.43 c 0,-0.179 0.146,-0.324 0.324,-0.324 h 4.439 c 0.178,0 0.324,-0.146 0.324,-0.323 v -1.126 c 0,-0.177 -0.146,-0.324 -0.324,-0.324 h -4.439 c -0.179,0 -0.324,-0.145 -0.324,-0.323 v -2.3 c 0,-0.177 0.146,-0.323 0.324,-0.323 h 6.758 c 0.176,0 0.322,-0.146 0.322,-0.324 V 9.938 c 0,-0.179 -0.146,-0.324 -0.322,-0.324 h -8.528 c -0.179,0 -0.324,0.146 -0.324,0.324 v 11.058 c 0,0.179 0.146,0.325 0.324,0.325 h 8.821 c 0.178,0 0.324,-0.146 0.324,-0.325 v -1.124 c 0,-0.179 -0.146,-0.323 -0.324,-0.323 h -7.051 z"
   clip-path="url(#SVGID_2_)" />
	<path
   id="path300"
   d="m 48.339,11.089 c 1.733,0 2.63,0.728 3.213,1.295 0.118,0.113 0.126,0.12 0.126,0.12 0.126,0.127 0.331,0.125 0.456,-0.002 l 0.779,-0.801 c 0.124,-0.127 0.12,-0.335 -0.007,-0.457 L 52.783,11.133 C 52.005,10.417 50.58,9.316 48.168,9.316 c -1.867,0 -3.467,0.686 -4.602,1.791 -1.135,1.104 -1.801,2.626 -1.801,4.295 0,1.985 0.814,3.517 2.021,4.549 1.202,1.031 2.794,1.564 4.351,1.564 3.446,-0.004 4.87,-1.529 5.186,-1.931 l 0.045,-0.056 c 0.014,-0.021 0.033,-0.048 0.043,-0.06 0.009,-0.011 0.02,-0.023 0.023,-0.026 0.004,-0.004 0.006,-0.024 0.006,-0.046 v -0.362 -3.62 c 0,-0.177 -0.146,-0.323 -0.324,-0.323 h -4.131 c -0.179,0 -0.324,0.146 -0.324,0.323 v 1.078 c 0,0.179 0.146,0.324 0.324,0.324 h 2.353 c 0.179,0 0.325,0.146 0.325,0.323 v 1.244 c 0,0.18 -0.038,0.356 -0.084,0.396 l -0.064,0.048 c -0.025,0.02 -0.053,0.04 -0.08,0.058 -0.468,0.338 -1.373,0.858 -3.218,0.858 -2.913,-10e-4 -4.678,-2.016 -4.679,-4.264 0.001,-2.405 1.75,-4.388 4.801,-4.39"
   clip-path="url(#SVGID_2_)" />
	<path
   style="fill:#00a3e3"
   id="path302"
   d="m 57.367,9.506 c -0.921,0 -1.665,0.746 -1.665,1.666 0,0.92 0.744,1.665 1.665,1.665 0.919,0 1.665,-0.745 1.665,-1.665 0,-0.92 -0.746,-1.666 -1.665,-1.666"
   clip-path="url(#SVGID_2_)" />
	<path
   id="path304"
   d="m 72.162,10.151 c 0.088,0 0.152,0.009 0.193,0.026 0.073,0.029 0.109,0.09 0.109,0.18 0,0.063 -0.023,0.111 -0.069,0.141 -0.024,0.017 -0.06,0.027 -0.103,0.034 0.056,0.009 0.097,0.032 0.123,0.07 0.025,0.038 0.037,0.074 0.037,0.11 v 0.053 c 0,0.017 0.002,0.033 0.002,0.053 0.002,0.019 0.004,0.031 0.006,0.037 l 0.006,0.009 H 72.35 C 72.349,10.861 72.349,10.859 72.348,10.857 72.347,10.855 72.347,10.852 72.347,10.849 L 72.344,10.826 V 10.77 c 0,-0.082 -0.023,-0.138 -0.067,-0.163 -0.026,-0.017 -0.073,-0.023 -0.139,-0.023 h -0.099 v 0.281 h -0.125 v -0.713 h 0.248 z m 0.133,0.113 c -0.03,-0.018 -0.08,-0.026 -0.149,-0.026 H 72.04 v 0.258 h 0.112 c 0.054,0 0.093,-0.005 0.119,-0.016 0.049,-0.02 0.073,-0.057 0.073,-0.111 0,-0.053 -0.016,-0.088 -0.049,-0.105 m 0.336,0.707 c -0.125,0.127 -0.277,0.19 -0.457,0.19 -0.178,0 -0.33,-0.063 -0.455,-0.19 -0.125,-0.127 -0.188,-0.28 -0.188,-0.461 0,-0.179 0.063,-0.331 0.189,-0.458 0.125,-0.126 0.275,-0.189 0.453,-0.189 0.18,0 0.332,0.063 0.457,0.189 0.127,0.127 0.189,0.278 0.189,0.458 0,0.18 -0.061,0.333 -0.188,0.461 m -0.848,-0.857 c -0.109,0.109 -0.162,0.241 -0.162,0.396 0,0.155 0.053,0.287 0.16,0.397 0.108,0.11 0.239,0.165 0.393,0.165 0.154,0 0.285,-0.055 0.394,-0.165 0.109,-0.11 0.161,-0.242 0.161,-0.397 0,-0.154 -0.053,-0.286 -0.161,-0.396 -0.108,-0.11 -0.239,-0.165 -0.394,-0.165 -0.153,0 -0.282,0.055 -0.391,0.165"
   clip-path="url(#SVGID_2_)" />
</g>
</svg>