<?xml version="1.0" encoding="utf-8"?>
<!-- Generator: Adobe Illustrator 16.0.0, SVG Export Plug-In . SVG Version: 6.00 Build 0)  -->
<!DOCTYPE svg PUBLIC "-//W3C//DTD SVG 1.1//EN" "http://www.w3.org/Graphics/SVG/1.1/DTD/svg11.dtd">
<svg version="1.1" id="Layer_1" xmlns="http://www.w3.org/2000/svg" xmlns:xlink="http://www.w3.org/1999/xlink" x="0px" y="0px"
	 width="1000px" height="190.853px" viewBox="-194 300.574 1000 190.853" enable-background="new -194 300.574 1000 190.853"
	 xml:space="preserve">
<g>
	<g>
		<g>
			<path d="M-194,314.469h27.882v111.347H-194V314.469z"/>
			<path d="M-100.874,369.222v56.685h-27.882V329.1l-7.73-12.791v-1.84h32.759l41.318,62.943v-62.943h27.882v111.347h-27.882
				L-100.874,369.222z"/>
			<path d="M62.096,346.309c-5.613-3.59-15.919-7.546-23.926-7.546c-8.005,0-10.766,3.313-10.766,7.085
				c0,2.576,2.576,5.429,7.178,8.005l12.606,7.178c14.724,8.558,20.797,18.864,20.797,31.747c0,18.313-11.778,34.876-38.833,34.876
				c-10.674,0-21.164-2.301-28.526-5.245v-30.275c6.073,4.786,17.484,9.478,27.33,9.478c6.534,0,10.307-2.484,10.307-7.178
				c0-2.577-2.117-5.061-7.362-8.006l-13.251-7.546C2.098,370.05-2.503,360.02-2.503,346.768c0-16.195,10.031-34.048,40.766-34.048
				c7.729,0,16.564,1.657,23.741,4.602v28.987H62.096z"/>
			<path d="M306.875,425.906l-20.981-61.746v61.746H258.01V314.561h34.418l26.5,75.826l26.504-75.826h34.232v111.346H351.78v-61.93
				l-20.979,61.93H306.875z"/>
			<path d="M444.171,369.222v56.685h-27.884V329.1l-7.729-12.791v-1.84h32.76l41.316,62.851v-62.851h27.883v111.347h-27.883
				L444.171,369.222z"/>
			<path d="M546.959,314.469h27.883v111.347h-27.883V314.469z"/>
			<path d="M672.752,405.754h-37.177l-6.718,20.152h-31.103l40.95-111.346h31.103l40.95,111.346h-31.103L672.752,405.754z
				 M644.777,378.884h18.957l-9.479-27.975L644.777,378.884z"/>
			<path d="M804.067,423.055c-7.086,2.944-15.092,4.601-23.466,4.601c-32.574,0-57.328-24.938-57.328-57.514
				s24.754-57.513,57.328-57.513c8.374,0,16.38,1.656,23.466,4.601v31.931c-5.43-5.061-13.619-8.65-23.466-8.65
				c-16.38,0-28.619,13.436-28.619,29.631c0,16.38,12.239,29.631,28.619,29.631c9.847,0,18.313-3.589,23.466-8.374V423.055z"/>
		</g>
	</g>
	<g>
		<path d="M641.373,464.648c-2.485-1.288-6.073-2.209-10.031-2.209c-5.428,0-9.569,4.049-9.569,9.848
			c0,5.428,3.865,9.845,9.202,9.845c4.97,0,7.73-3.313,7.73-6.073v-0.368h-7.822v-8.374h17.393c0.367,1.473,0.553,3.681,0.553,5.706
			c0,9.662-5.982,18.404-18.129,18.404c-10.768,0-18.497-8.283-18.497-19.14c0-10.859,8.005-19.143,19.14-19.143
			c3.682,0,7.546,0.553,10.031,1.473V464.648z"/>
		<path d="M677.813,484.157h-12.423l-2.208,6.718h-10.399l13.619-37.086h10.399l13.619,37.086h-10.399L677.813,484.157z
			 M668.428,475.138h6.349l-3.129-9.293L668.428,475.138z"/>
		<path d="M714.439,490.875l-6.994-20.613v20.613h-9.295v-37.086h11.504l8.833,25.307l8.834-25.307h11.411v37.086h-9.294v-20.613
			l-6.993,20.613H714.439z"/>
		<path d="M750.879,490.875v-37.086h21.717v8.927h-12.422v4.969h11.317v8.927h-11.317v5.337h12.422v8.927H750.879L750.879,490.875z"
			/>
		<path d="M804.067,464.279c-1.84-1.195-5.337-2.484-8.005-2.484c-2.67,0-3.589,1.104-3.589,2.394c0,0.828,0.828,1.84,2.392,2.668
			l4.233,2.392c4.876,2.854,6.901,6.259,6.901,10.583c0,6.075-3.957,11.596-12.975,11.596c-3.589,0-7.086-0.737-9.479-1.749v-10.123
			c2.023,1.565,5.797,3.13,9.11,3.13c2.208,0,3.405-0.828,3.405-2.393c0-0.828-0.737-1.656-2.485-2.669l-4.416-2.485
			c-5.154-2.943-6.719-6.256-6.719-10.673c0-5.431,3.313-11.32,13.62-11.32c2.575,0,5.521,0.553,7.912,1.565v9.569H804.067z"/>
	</g>
	<g>
		<path fill="#78B1BB" d="M146.665,330.021c-4.97-1.38-10.215-1.933-15.736-1.38c-20.061,2.024-35.98,18.497-37.36,38.557
			c-1.657,24.386,17.576,44.723,41.686,44.723c3.957,0,7.821-0.552,11.411-1.565c0.828-0.275,0.919-1.38,0.092-1.747
			c-14.908-6.35-25.397-21.165-25.397-38.466c0-17.3,10.49-32.116,25.397-38.465C147.584,331.401,147.493,330.204,146.665,330.021z"
			/>
		<path fill="#78B1BB" d="M204.822,370.142c0,32.116-21.718,59.17-51.348,67.176c-0.921,0.275-0.828,1.656,0.092,1.841
			c4.232,0.553,8.558,0.736,12.975,0.553c35.521-1.749,64.23-30.552,65.98-66.072c2.023-40.029-29.816-73.065-69.477-73.065
			c-3.221,0-6.351,0.183-9.387,0.644c-1.012,0.092-1.104,1.565-0.092,1.841C183.104,311.063,204.822,338.026,204.822,370.142z"/>
	</g>
</g>
</svg>
